<svg width="20" height="20" viewBox="0 0 30 35" fill="none" xmlns="http://www.w3.org/2000/svg">
<path d="M2.89617 31.2144C-1.01656 27.1772 -0.943632 20.6668 2.98898 16.6443L17.0354 2.27633C20.003 -0.759294 24.8268 -0.759562 27.7946 2.27633C30.7337 5.28262 30.7372 10.1332 27.7946 13.143L15.5503 25.6554C13.5511 27.7003 10.2847 27.6718 8.31934 25.5886C6.42592 23.5817 6.48666 20.4007 8.41657 18.4266L18.0422 8.59387C18.4562 8.17106 19.1345 8.16383 19.5574 8.57774L21.0882 10.0763C21.5111 10.4903 21.5183 11.1687 21.1044 11.5915L11.4797 21.4232C11.1494 21.7611 11.1291 22.3224 11.4363 22.6481C11.7291 22.9584 12.1893 22.9636 12.4869 22.6592L24.7312 10.1468C26.0446 8.80341 26.0446 6.61615 24.7305 5.27198C23.4455 3.95767 21.3851 3.957 20.0996 5.27198L6.05313 19.6398C3.72525 22.0211 3.68936 25.8755 5.97338 28.2322C8.25083 30.5822 11.9322 30.5851 14.2139 28.2514L25.7357 16.4657C26.1494 16.0426 26.8277 16.0349 27.2509 16.4486L28.7828 17.9462C29.206 18.3598 29.2137 19.0382 28.8 19.4613L17.2781 31.2469C13.2886 35.3276 6.83548 35.2792 2.89617 31.2144Z" fill="#26B4FF"/>
</svg>
