<svg width="17" height="23" viewBox="0 0 17 23" fill="none" xmlns="http://www.w3.org/2000/svg">
<path d="M14.875 2.875H11.3333C11.3333 1.28926 10.0628 0 8.5 0C6.93724 0 5.66667 1.28926 5.66667 2.875H2.125C0.951823 2.875 0 3.84082 0 5.03125V20.8438C0 22.0342 0.951823 23 2.125 23H14.875C16.0482 23 17 22.0342 17 20.8438V5.03125C17 3.84082 16.0482 2.875 14.875 2.875ZM4.25 19.0469C3.6612 19.0469 3.1875 18.5662 3.1875 17.9688C3.1875 17.3713 3.6612 16.8906 4.25 16.8906C4.8388 16.8906 5.3125 17.3713 5.3125 17.9688C5.3125 18.5662 4.8388 19.0469 4.25 19.0469ZM4.25 14.7344C3.6612 14.7344 3.1875 14.2537 3.1875 13.6562C3.1875 13.0588 3.6612 12.5781 4.25 12.5781C4.8388 12.5781 5.3125 13.0588 5.3125 13.6562C5.3125 14.2537 4.8388 14.7344 4.25 14.7344ZM4.25 10.4219C3.6612 10.4219 3.1875 9.94121 3.1875 9.34375C3.1875 8.74629 3.6612 8.26562 4.25 8.26562C4.8388 8.26562 5.3125 8.74629 5.3125 9.34375C5.3125 9.94121 4.8388 10.4219 4.25 10.4219ZM8.5 1.79688C9.0888 1.79688 9.5625 2.27754 9.5625 2.875C9.5625 3.47246 9.0888 3.95312 8.5 3.95312C7.9112 3.95312 7.4375 3.47246 7.4375 2.875C7.4375 2.27754 7.9112 1.79688 8.5 1.79688ZM14.1667 18.3281C14.1667 18.5258 14.0073 18.6875 13.8125 18.6875H7.4375C7.24271 18.6875 7.08333 18.5258 7.08333 18.3281V17.6094C7.08333 17.4117 7.24271 17.25 7.4375 17.25H13.8125C14.0073 17.25 14.1667 17.4117 14.1667 17.6094V18.3281ZM14.1667 14.0156C14.1667 14.2133 14.0073 14.375 13.8125 14.375H7.4375C7.24271 14.375 7.08333 14.2133 7.08333 14.0156V13.2969C7.08333 13.0992 7.24271 12.9375 7.4375 12.9375H13.8125C14.0073 12.9375 14.1667 13.0992 14.1667 13.2969V14.0156ZM14.1667 9.70312C14.1667 9.90078 14.0073 10.0625 13.8125 10.0625H7.4375C7.24271 10.0625 7.08333 9.90078 7.08333 9.70312V8.98438C7.08333 8.78672 7.24271 8.625 7.4375 8.625H13.8125C14.0073 8.625 14.1667 8.78672 14.1667 8.98438V9.70312Z" fill="white"/>
</svg>
