<svg width="80" height="80" viewBox="0 0 109 115" fill="none" xmlns="http://www.w3.org/2000/svg">
<rect x="0.682617" width="107.385" height="115" rx="8" fill="#26B4FF"/>
<path d="M52.9745 58.2857C61.8163 58.2857 68.9823 50.6116 68.9823 41.1429C68.9823 31.6741 61.8163 24 52.9745 24C44.1327 24 36.9668 31.6741 36.9668 41.1429C36.9668 50.6116 44.1327 58.2857 52.9745 58.2857ZM64.9553 62.6518L58.9774 88.2857L54.9755 70.0714L58.9774 62.5714H46.9716L50.9735 70.0714L46.9716 88.2857L40.9937 62.6518C32.0769 63.1071 24.9609 70.9152 24.9609 80.5714V86.1429C24.9609 89.692 27.6497 92.5714 30.9638 92.5714H74.9852C78.2993 92.5714 80.9881 89.692 80.9881 86.1429V80.5714C80.9881 70.9152 73.8722 63.1071 64.9553 62.6518Z" fill="white"/>
</svg>
