<svg width="25" height="19" viewBox="0 0 25 20" fill="none" xmlns="http://www.w3.org/2000/svg">
<path d="M20.004 7.46008L19.6837 8.01867C19.5665 8.2257 19.3165 8.31164 19.0939 8.22961C18.6329 8.05773 18.2111 7.81164 17.84 7.50305C17.6603 7.35461 17.6134 7.09289 17.7306 6.88976L18.0509 6.33117C17.7814 6.01867 17.5704 5.65539 17.4298 5.26086H16.7853C16.5509 5.26086 16.3478 5.09289 16.3087 4.85851C16.2306 4.38976 16.2267 3.89758 16.3087 3.4093C16.3478 3.17492 16.5509 3.00305 16.7853 3.00305H17.4298C17.5704 2.60851 17.7814 2.24523 18.0509 1.93273L17.7306 1.37414C17.6134 1.17101 17.6564 0.909295 17.84 0.760857C18.2111 0.452264 18.6368 0.20617 19.0939 0.0342949C19.3165 -0.0477364 19.5665 0.0382011 19.6837 0.245232L20.004 0.803826C20.4142 0.729607 20.8322 0.729607 21.2423 0.803826L21.5626 0.245232C21.6798 0.0382011 21.9298 -0.0477364 22.1525 0.0342949C22.6134 0.20617 23.0353 0.452264 23.4064 0.760857C23.5861 0.909295 23.6329 1.17101 23.5157 1.37414L23.1954 1.93273C23.465 2.24523 23.6759 2.60851 23.8165 3.00305H24.4611C24.6954 3.00305 24.8986 3.17101 24.9376 3.40539C25.0157 3.87414 25.0197 4.36633 24.9376 4.85461C24.8986 5.08898 24.6954 5.26086 24.4611 5.26086H23.8165C23.6759 5.65539 23.465 6.01867 23.1954 6.33117L23.5157 6.88976C23.6329 7.09289 23.59 7.35461 23.4064 7.50305C23.0353 7.81164 22.6095 8.05773 22.1525 8.22961C21.9298 8.31164 21.6798 8.2257 21.5626 8.01867L21.2423 7.46008C20.8361 7.5343 20.4142 7.5343 20.004 7.46008ZM19.5939 5.1632C21.0978 6.31945 22.8126 4.60461 21.6564 3.1007C20.1525 1.94054 18.4376 3.65929 19.5939 5.1632ZM15.09 11.1749L16.4064 11.8312C16.8009 12.0577 16.9728 12.5382 16.8165 12.9679C16.4689 13.9132 15.7853 14.7804 15.1525 15.5382C14.8634 15.8859 14.3634 15.9718 13.9689 15.7452L12.8322 15.089C12.2072 15.6241 11.4806 16.0499 10.6876 16.3273V17.6398C10.6876 18.0929 10.3634 18.4835 9.91809 18.5616C8.95715 18.7257 7.94934 18.7335 6.95325 18.5616C6.50403 18.4835 6.172 18.0968 6.172 17.6398V16.3273C5.37903 16.046 4.65247 15.6241 4.02747 15.089L2.89075 15.7413C2.50012 15.9679 1.99622 15.882 1.70715 15.5343C1.07434 14.7765 0.406373 13.9093 0.0587164 12.9679C-0.0975336 12.5421 0.0743414 12.0616 0.468873 11.8312L1.76965 11.1749C1.61731 10.3585 1.61731 9.51867 1.76965 8.69836L0.468873 8.0382C0.0743414 7.81164 -0.10144 7.33117 0.0587164 6.90539C0.406373 5.96008 1.07434 5.09289 1.70715 4.33508C1.99622 3.98742 2.49622 3.90148 2.89075 4.12805L4.02747 4.7843C4.65247 4.24914 5.37903 3.82336 6.172 3.54601V2.22961C6.172 1.78039 6.49231 1.38976 6.93762 1.31164C7.89856 1.14758 8.91028 1.13976 9.90637 1.30773C10.3556 1.38586 10.6876 1.77258 10.6876 2.22961V3.54211C11.4806 3.82336 12.2072 4.24523 12.8322 4.78039L13.9689 4.12414C14.3595 3.89758 14.8634 3.98351 15.1525 4.33117C15.7853 5.08898 16.4493 5.95617 16.797 6.90148C16.9532 7.32726 16.8009 7.80773 16.4064 8.0382L15.09 8.69445C15.2423 9.51476 15.2423 10.3546 15.09 11.1749ZM10.4962 11.9991C12.8087 8.99133 9.37512 5.55773 6.36731 7.87023C4.05481 10.878 7.4884 14.3116 10.4962 11.9991ZM20.004 19.1359L19.6837 19.6945C19.5665 19.9015 19.3165 19.9874 19.0939 19.9054C18.6329 19.7335 18.2111 19.4874 17.84 19.1788C17.6603 19.0304 17.6134 18.7687 17.7306 18.5655L18.0509 18.007C17.7814 17.6945 17.5704 17.3312 17.4298 16.9366H16.7853C16.5509 16.9366 16.3478 16.7687 16.3087 16.5343C16.2306 16.0655 16.2267 15.5734 16.3087 15.0851C16.3478 14.8507 16.5509 14.6788 16.7853 14.6788H17.4298C17.5704 14.2843 17.7814 13.921 18.0509 13.6085L17.7306 13.0499C17.6134 12.8468 17.6564 12.5851 17.84 12.4366C18.2111 12.128 18.6368 11.882 19.0939 11.7101C19.3165 11.628 19.5665 11.714 19.6837 11.921L20.004 12.4796C20.4142 12.4054 20.8322 12.4054 21.2423 12.4796L21.5626 11.921C21.6798 11.714 21.9298 11.628 22.1525 11.7101C22.6134 11.882 23.0353 12.128 23.4064 12.4366C23.5861 12.5851 23.6329 12.8468 23.5157 13.0499L23.1954 13.6085C23.465 13.921 23.6759 14.2843 23.8165 14.6788H24.4611C24.6954 14.6788 24.8986 14.8468 24.9376 15.0812C25.0157 15.5499 25.0197 16.0421 24.9376 16.5304C24.8986 16.7648 24.6954 16.9366 24.4611 16.9366H23.8165C23.6759 17.3312 23.465 17.6945 23.1954 18.007L23.5157 18.5655C23.6329 18.7687 23.59 19.0304 23.4064 19.1788C23.0353 19.4874 22.6095 19.7335 22.1525 19.9054C21.9298 19.9874 21.6798 19.9015 21.5626 19.6945L21.2423 19.1359C20.8361 19.2101 20.4142 19.2101 20.004 19.1359ZM19.5939 16.8351C21.0978 17.9913 22.8126 16.2765 21.6564 14.7726C20.1525 13.6163 18.4376 15.3312 19.5939 16.8351Z" fill="white"/>
</svg>
