<svg width="80" height="80" viewBox="0 0 110 115" fill="none" xmlns="http://www.w3.org/2000/svg">
<rect x="0.920166" width="108.166" height="115" rx="8" fill="#26B4FF"/>
<path d="M63.9389 64.5H68.1715C68.8769 64.5 69.5823 63.75 69.5823 63V47.25C69.5823 46.5 68.8769 45.75 68.1715 45.75H63.9389C63.2334 45.75 62.528 46.5 62.528 47.25V63C62.528 63.75 63.2334 64.5 63.9389 64.5ZM74.5204 64.5H78.753C79.4584 64.5 80.1638 63.75 80.1638 63V36C80.1638 35.25 79.4584 34.5 78.753 34.5H74.5204C73.8149 34.5 73.1095 35.25 73.1095 36V63C73.1095 63.75 73.8149 64.5 74.5204 64.5ZM42.7759 64.5H47.0085C47.7139 64.5 48.4193 63.75 48.4193 63V54.75C48.4193 54 47.7139 53.25 47.0085 53.25H42.7759C42.0704 53.25 41.365 54 41.365 54.75V63C41.365 63.75 42.0704 64.5 42.7759 64.5ZM53.3574 64.5H57.59C58.2954 64.5 59.0008 63.75 59.0008 63V39.75C59.0008 39 58.2954 38.25 57.59 38.25H53.3574C52.6519 38.25 51.9465 39 51.9465 39.75V63C51.9465 63.75 52.6519 64.5 53.3574 64.5ZM81.9274 72H34.3107V36.375C34.3107 35.3391 33.5215 34.5 32.5471 34.5H29.0199C28.0456 34.5 27.2563 35.3391 27.2563 36.375V75.75C27.2563 77.8207 28.8359 79.5 30.7835 79.5H81.9274C82.9018 79.5 83.691 78.6609 83.691 77.625V73.875C83.691 72.8391 82.9018 72 81.9274 72Z" fill="#FFFAFA"/>
</svg>
