<svg width="19" height="20" viewBox="0 0 19 20" fill="none" xmlns="http://www.w3.org/2000/svg">
<path d="M9.55014 0.3125C4.53475 0.3125 0.471191 4.64844 0.471191 10C0.471191 15.3516 4.53475 19.6875 9.55014 19.6875C14.5655 19.6875 18.6291 15.3516 18.6291 10C18.6291 4.64844 14.5655 0.3125 9.55014 0.3125ZM12.9361 12.5391L12.2039 13.5156C12.1559 13.5797 12.0964 13.6331 12.0291 13.6727C11.9617 13.7123 11.8876 13.7373 11.8112 13.7464C11.7347 13.7555 11.6574 13.7484 11.5835 13.7255C11.5096 13.7027 11.4406 13.6646 11.3806 13.6133L8.92779 11.6711C8.75641 11.5247 8.61808 11.339 8.52302 11.1279C8.42797 10.9167 8.37863 10.6854 8.37866 10.4512V4.375C8.37866 4.20924 8.44037 4.05027 8.55022 3.93306C8.66007 3.81585 8.80905 3.75 8.9644 3.75H10.1359C10.2912 3.75 10.4402 3.81585 10.5501 3.93306C10.6599 4.05027 10.7216 4.20924 10.7216 4.375V10L12.8449 11.6602C12.905 11.7115 12.9551 11.7749 12.9922 11.8468C13.0293 11.9188 13.0527 11.9978 13.0612 12.0795C13.0697 12.1611 13.063 12.2437 13.0415 12.3225C13.02 12.4014 12.9842 12.475 12.9361 12.5391Z" fill="#A6A5B5"/>
</svg>
