<svg width="300" height="41" viewBox="0 0 355 41" fill="none" xmlns="http://www.w3.org/2000/svg">
<path d="M335 0.625C345.703 0.625 354.375 9.29688 354.375 20C354.375 30.7031 345.703 39.375 335 39.375C324.297 39.375 315.625 30.7031 315.625 20C315.625 9.29688 324.297 0.625 335 0.625ZM343.898 18.6719L333.312 8.08594C332.578 7.35156 331.391 7.35156 330.664 8.08594L329.336 9.41406C328.602 10.1484 328.602 11.3359 329.336 12.0625L337.273 20L329.336 27.9375C328.602 28.6719 328.602 29.8594 329.336 30.5859L330.664 31.9141C331.398 32.6484 332.586 32.6484 333.312 31.9141L343.898 21.3281C344.633 20.5938 344.633 19.4062 343.898 18.6719Z" fill="black"/>
<path d="M20 40.375C9.29688 40.375 0.625 31.7031 0.625 21C0.625 10.2969 9.29688 1.625 20 1.625C30.7031 1.625 39.375 10.2969 39.375 21C39.375 31.7031 30.7031 40.375 20 40.375ZM11.1016 22.3281L21.6875 32.9141C22.4219 33.6484 23.6094 33.6484 24.3359 32.9141L25.6641 31.5859C26.3984 30.8516 26.3984 29.6641 25.6641 28.9375L17.7266 21L25.6641 13.0625C26.3984 12.3281 26.3984 11.1406 25.6641 10.4141L24.3359 9.08594C23.6016 8.35156 22.4141 8.35156 21.6875 9.08594L11.1016 19.6719C10.3672 20.4062 10.3672 21.5938 11.1016 22.3281Z" fill="#9F9F9F"/>
<path d="M54.7812 21.3994H50.4678V24.9268H55.4785V26H49.1553V16.0469H55.4102V17.127H50.4678V20.3262H54.7812V21.3994ZM58.1035 18.6035L58.1377 19.4238C58.68 18.7858 59.4115 18.4668 60.332 18.4668C61.3665 18.4668 62.0706 18.8633 62.4443 19.6562C62.6904 19.3008 63.0094 19.0137 63.4014 18.7949C63.7979 18.5762 64.265 18.4668 64.8027 18.4668C66.4251 18.4668 67.25 19.3258 67.2773 21.0439V26H66.0127V21.1191C66.0127 20.5905 65.8919 20.1963 65.6504 19.9365C65.4089 19.6722 65.0033 19.54 64.4336 19.54C63.9642 19.54 63.5745 19.6813 63.2646 19.9639C62.9548 20.2419 62.7747 20.6178 62.7246 21.0918V26H61.4531V21.1533C61.4531 20.0778 60.9268 19.54 59.874 19.54C59.0446 19.54 58.4772 19.8932 58.1719 20.5996V26H56.9072V18.6035H58.1035ZM75.4395 22.3838C75.4395 23.5094 75.182 24.4163 74.667 25.1045C74.152 25.7926 73.4548 26.1367 72.5752 26.1367C71.6774 26.1367 70.971 25.8519 70.4561 25.2822V28.8438H69.1914V18.6035H70.3467L70.4082 19.4238C70.9232 18.7858 71.6387 18.4668 72.5547 18.4668C73.4434 18.4668 74.1452 18.8018 74.6602 19.4717C75.1797 20.1416 75.4395 21.0736 75.4395 22.2676V22.3838ZM74.1748 22.2402C74.1748 21.4062 73.9971 20.7477 73.6416 20.2646C73.2861 19.7816 72.7985 19.54 72.1787 19.54C71.4131 19.54 70.8389 19.8796 70.4561 20.5586V24.0928C70.8343 24.7673 71.4131 25.1045 72.1924 25.1045C72.7985 25.1045 73.2793 24.8652 73.6348 24.3867C73.9948 23.9036 74.1748 23.1882 74.1748 22.2402ZM80.6279 19.7383C80.4365 19.7064 80.2292 19.6904 80.0059 19.6904C79.1764 19.6904 78.6136 20.0436 78.3174 20.75V26H77.0527V18.6035H78.2832L78.3037 19.458C78.7184 18.7972 79.3063 18.4668 80.0674 18.4668C80.3135 18.4668 80.5003 18.4987 80.6279 18.5625V19.7383ZM84.7295 26.1367C83.7269 26.1367 82.9111 25.8086 82.2822 25.1523C81.6533 24.4915 81.3389 23.6097 81.3389 22.5068V22.2744C81.3389 21.5407 81.4779 20.8867 81.7559 20.3125C82.0384 19.7337 82.4303 19.2826 82.9316 18.959C83.4375 18.6309 83.9844 18.4668 84.5723 18.4668C85.5339 18.4668 86.2812 18.7835 86.8145 19.417C87.3477 20.0505 87.6143 20.9574 87.6143 22.1377V22.6641H82.6035C82.6217 23.3932 82.8337 23.9834 83.2393 24.4346C83.6494 24.8812 84.1689 25.1045 84.7979 25.1045C85.2445 25.1045 85.6227 25.0133 85.9326 24.8311C86.2425 24.6488 86.5137 24.4072 86.7461 24.1064L87.5186 24.708C86.8988 25.6605 85.9691 26.1367 84.7295 26.1367ZM84.5723 19.5059C84.0618 19.5059 83.6335 19.6927 83.2871 20.0664C82.9408 20.4355 82.7266 20.9551 82.6445 21.625H86.3496V21.5293C86.3132 20.8867 86.14 20.39 85.8301 20.0391C85.5202 19.6836 85.1009 19.5059 84.5723 19.5059ZM93.3906 24.0381C93.3906 23.6963 93.2607 23.432 93.001 23.2451C92.7458 23.0537 92.2969 22.8896 91.6543 22.7529C91.0163 22.6162 90.5081 22.4521 90.1299 22.2607C89.7562 22.0693 89.4782 21.8415 89.2959 21.5771C89.1182 21.3128 89.0293 20.9984 89.0293 20.6338C89.0293 20.0277 89.2845 19.515 89.7949 19.0957C90.3099 18.6764 90.9661 18.4668 91.7637 18.4668C92.6022 18.4668 93.2812 18.6833 93.8008 19.1162C94.3249 19.5492 94.5869 20.1029 94.5869 20.7773H93.3154C93.3154 20.431 93.1673 20.1325 92.8711 19.8818C92.5794 19.6312 92.2103 19.5059 91.7637 19.5059C91.3034 19.5059 90.9434 19.6061 90.6836 19.8066C90.4238 20.0072 90.2939 20.2692 90.2939 20.5928C90.2939 20.8981 90.4147 21.1283 90.6562 21.2832C90.8978 21.4382 91.333 21.5863 91.9619 21.7275C92.5954 21.8688 93.1081 22.0374 93.5 22.2334C93.8919 22.4294 94.1813 22.6663 94.3682 22.9443C94.5596 23.2178 94.6553 23.5527 94.6553 23.9492C94.6553 24.61 94.391 25.141 93.8623 25.542C93.3337 25.9385 92.6478 26.1367 91.8047 26.1367C91.2122 26.1367 90.6882 26.0319 90.2324 25.8223C89.7767 25.6126 89.4189 25.321 89.1592 24.9473C88.904 24.569 88.7764 24.1611 88.7764 23.7236H90.041C90.0638 24.1475 90.2324 24.4847 90.5469 24.7354C90.8659 24.9814 91.2852 25.1045 91.8047 25.1045C92.2832 25.1045 92.666 25.0088 92.9531 24.8174C93.2448 24.6214 93.3906 24.3617 93.3906 24.0381ZM100.869 26C100.796 25.8542 100.737 25.5944 100.691 25.2207C100.104 25.8314 99.4017 26.1367 98.5859 26.1367C97.8568 26.1367 97.2575 25.9316 96.7881 25.5215C96.3232 25.1068 96.0908 24.5827 96.0908 23.9492C96.0908 23.179 96.3825 22.582 96.9658 22.1582C97.5537 21.7298 98.3786 21.5156 99.4404 21.5156H100.671V20.9346C100.671 20.4925 100.539 20.1416 100.274 19.8818C100.01 19.6175 99.6204 19.4854 99.1055 19.4854C98.6543 19.4854 98.276 19.5993 97.9707 19.8271C97.6654 20.055 97.5127 20.3307 97.5127 20.6543H96.2412C96.2412 20.2852 96.3711 19.9297 96.6309 19.5879C96.8952 19.2415 97.2507 18.9681 97.6973 18.7676C98.1484 18.5671 98.6429 18.4668 99.1807 18.4668C100.033 18.4668 100.701 18.681 101.184 19.1094C101.667 19.5332 101.917 20.1188 101.936 20.8662V24.2705C101.936 24.9495 102.022 25.4896 102.195 25.8906V26H100.869ZM98.7705 25.0361C99.167 25.0361 99.543 24.9336 99.8984 24.7285C100.254 24.5234 100.511 24.2568 100.671 23.9287V22.4111H99.6797C98.1302 22.4111 97.3555 22.8646 97.3555 23.7715C97.3555 24.168 97.4876 24.4779 97.752 24.7012C98.0163 24.9245 98.3558 25.0361 98.7705 25.0361ZM111.417 26H110.146V17.5713L107.596 18.5078V17.3594L111.219 15.999H111.417V26ZM118.417 22.2402C118.417 21.1055 118.686 20.194 119.224 19.5059C119.761 18.8132 120.465 18.4668 121.336 18.4668C122.202 18.4668 122.888 18.763 123.394 19.3555V15.5H124.658V26H123.496L123.435 25.207C122.929 25.8268 122.225 26.1367 121.322 26.1367C120.465 26.1367 119.766 25.7858 119.224 25.084C118.686 24.3822 118.417 23.4661 118.417 22.3359V22.2402ZM119.682 22.3838C119.682 23.2223 119.855 23.8786 120.201 24.3525C120.548 24.8265 121.026 25.0635 121.637 25.0635C122.439 25.0635 123.024 24.7035 123.394 23.9834V20.5859C123.015 19.8887 122.434 19.54 121.65 19.54C121.031 19.54 120.548 19.7793 120.201 20.2578C119.855 20.7363 119.682 21.445 119.682 22.3838ZM129.696 26.1367C128.694 26.1367 127.878 25.8086 127.249 25.1523C126.62 24.4915 126.306 23.6097 126.306 22.5068V22.2744C126.306 21.5407 126.445 20.8867 126.723 20.3125C127.005 19.7337 127.397 19.2826 127.898 18.959C128.404 18.6309 128.951 18.4668 129.539 18.4668C130.501 18.4668 131.248 18.7835 131.781 19.417C132.314 20.0505 132.581 20.9574 132.581 22.1377V22.6641H127.57C127.589 23.3932 127.8 23.9834 128.206 24.4346C128.616 24.8812 129.136 25.1045 129.765 25.1045C130.211 25.1045 130.59 25.0133 130.899 24.8311C131.209 24.6488 131.48 24.4072 131.713 24.1064L132.485 24.708C131.866 25.6605 130.936 26.1367 129.696 26.1367ZM129.539 19.5059C129.029 19.5059 128.6 19.6927 128.254 20.0664C127.908 20.4355 127.693 20.9551 127.611 21.625H131.316V21.5293C131.28 20.8867 131.107 20.39 130.797 20.0391C130.487 19.6836 130.068 19.5059 129.539 19.5059ZM143.915 26H137.394V25.0908L140.839 21.2627C141.349 20.6839 141.7 20.2145 141.892 19.8545C142.088 19.4899 142.186 19.1139 142.186 18.7266C142.186 18.207 142.028 17.7809 141.714 17.4482C141.399 17.1156 140.98 16.9492 140.456 16.9492C139.827 16.9492 139.337 17.1292 138.986 17.4893C138.64 17.8447 138.467 18.3415 138.467 18.9795H137.202C137.202 18.0635 137.496 17.3229 138.084 16.7578C138.676 16.1927 139.467 15.9102 140.456 15.9102C141.381 15.9102 142.113 16.154 142.65 16.6416C143.188 17.1247 143.457 17.7695 143.457 18.5762C143.457 19.556 142.833 20.7227 141.584 22.0762L138.918 24.9678H143.915V26ZM155.105 22.3838C155.105 23.5094 154.848 24.4163 154.333 25.1045C153.818 25.7926 153.121 26.1367 152.241 26.1367C151.343 26.1367 150.637 25.8519 150.122 25.2822V28.8438H148.857V18.6035H150.013L150.074 19.4238C150.589 18.7858 151.305 18.4668 152.221 18.4668C153.109 18.4668 153.811 18.8018 154.326 19.4717C154.846 20.1416 155.105 21.0736 155.105 22.2676V22.3838ZM153.841 22.2402C153.841 21.4062 153.663 20.7477 153.308 20.2646C152.952 19.7816 152.465 19.54 151.845 19.54C151.079 19.54 150.505 19.8796 150.122 20.5586V24.0928C150.5 24.7673 151.079 25.1045 151.858 25.1045C152.465 25.1045 152.945 24.8652 153.301 24.3867C153.661 23.9036 153.841 23.1882 153.841 22.2402ZM159.788 26.1367C158.785 26.1367 157.97 25.8086 157.341 25.1523C156.712 24.4915 156.397 23.6097 156.397 22.5068V22.2744C156.397 21.5407 156.536 20.8867 156.814 20.3125C157.097 19.7337 157.489 19.2826 157.99 18.959C158.496 18.6309 159.043 18.4668 159.631 18.4668C160.592 18.4668 161.34 18.7835 161.873 19.417C162.406 20.0505 162.673 20.9574 162.673 22.1377V22.6641H157.662C157.68 23.3932 157.892 23.9834 158.298 24.4346C158.708 24.8812 159.228 25.1045 159.856 25.1045C160.303 25.1045 160.681 25.0133 160.991 24.8311C161.301 24.6488 161.572 24.4072 161.805 24.1064L162.577 24.708C161.957 25.6605 161.028 26.1367 159.788 26.1367ZM159.631 19.5059C159.12 19.5059 158.692 19.6927 158.346 20.0664C157.999 20.4355 157.785 20.9551 157.703 21.625H161.408V21.5293C161.372 20.8867 161.199 20.39 160.889 20.0391C160.579 19.6836 160.16 19.5059 159.631 19.5059ZM165.339 18.6035L165.38 19.5332C165.945 18.8223 166.683 18.4668 167.595 18.4668C169.158 18.4668 169.946 19.3486 169.96 21.1123V26H168.695V21.1055C168.691 20.5723 168.568 20.1781 168.326 19.9229C168.089 19.6676 167.718 19.54 167.212 19.54C166.802 19.54 166.442 19.6494 166.132 19.8682C165.822 20.0869 165.58 20.374 165.407 20.7295V26H164.143V18.6035H165.339ZM171.56 22.2402C171.56 21.1055 171.828 20.194 172.366 19.5059C172.904 18.8132 173.608 18.4668 174.479 18.4668C175.344 18.4668 176.03 18.763 176.536 19.3555V15.5H177.801V26H176.639L176.577 25.207C176.071 25.8268 175.367 26.1367 174.465 26.1367C173.608 26.1367 172.909 25.7858 172.366 25.084C171.828 24.3822 171.56 23.4661 171.56 22.3359V22.2402ZM172.824 22.3838C172.824 23.2223 172.997 23.8786 173.344 24.3525C173.69 24.8265 174.169 25.0635 174.779 25.0635C175.581 25.0635 176.167 24.7035 176.536 23.9834V20.5859C176.158 19.8887 175.577 19.54 174.793 19.54C174.173 19.54 173.69 19.7793 173.344 20.2578C172.997 20.7363 172.824 21.445 172.824 22.3838ZM181.144 26H179.879V18.6035H181.144V26ZM179.776 16.6416C179.776 16.4365 179.838 16.2633 179.961 16.1221C180.089 15.9808 180.275 15.9102 180.521 15.9102C180.768 15.9102 180.954 15.9808 181.082 16.1221C181.21 16.2633 181.273 16.4365 181.273 16.6416C181.273 16.8467 181.21 17.0176 181.082 17.1543C180.954 17.291 180.768 17.3594 180.521 17.3594C180.275 17.3594 180.089 17.291 179.961 17.1543C179.838 17.0176 179.776 16.8467 179.776 16.6416ZM186.243 26.1367C185.241 26.1367 184.425 25.8086 183.796 25.1523C183.167 24.4915 182.853 23.6097 182.853 22.5068V22.2744C182.853 21.5407 182.992 20.8867 183.27 20.3125C183.552 19.7337 183.944 19.2826 184.445 18.959C184.951 18.6309 185.498 18.4668 186.086 18.4668C187.048 18.4668 187.795 18.7835 188.328 19.417C188.861 20.0505 189.128 20.9574 189.128 22.1377V22.6641H184.117C184.135 23.3932 184.347 23.9834 184.753 24.4346C185.163 24.8812 185.683 25.1045 186.312 25.1045C186.758 25.1045 187.136 25.0133 187.446 24.8311C187.756 24.6488 188.027 24.4072 188.26 24.1064L189.032 24.708C188.412 25.6605 187.483 26.1367 186.243 26.1367ZM186.086 19.5059C185.576 19.5059 185.147 19.6927 184.801 20.0664C184.454 20.4355 184.24 20.9551 184.158 21.625H187.863V21.5293C187.827 20.8867 187.654 20.39 187.344 20.0391C187.034 19.6836 186.615 19.5059 186.086 19.5059ZM191.794 18.6035L191.835 19.5332C192.4 18.8223 193.138 18.4668 194.05 18.4668C195.613 18.4668 196.401 19.3486 196.415 21.1123V26H195.15V21.1055C195.146 20.5723 195.023 20.1781 194.781 19.9229C194.544 19.6676 194.173 19.54 193.667 19.54C193.257 19.54 192.897 19.6494 192.587 19.8682C192.277 20.0869 192.035 20.374 191.862 20.7295V26H190.598V18.6035H191.794ZM200.038 16.8125V18.6035H201.419V19.5811H200.038V24.168C200.038 24.4642 200.1 24.6875 200.223 24.8379C200.346 24.9837 200.555 25.0566 200.852 25.0566C200.997 25.0566 201.198 25.0293 201.453 24.9746V26C201.12 26.0911 200.797 26.1367 200.482 26.1367C199.917 26.1367 199.491 25.9658 199.204 25.624C198.917 25.2822 198.773 24.7969 198.773 24.168V19.5811H197.427V18.6035H198.773V16.8125H200.038ZM205.972 26.1367C204.969 26.1367 204.153 25.8086 203.524 25.1523C202.896 24.4915 202.581 23.6097 202.581 22.5068V22.2744C202.581 21.5407 202.72 20.8867 202.998 20.3125C203.281 19.7337 203.673 19.2826 204.174 18.959C204.68 18.6309 205.227 18.4668 205.814 18.4668C206.776 18.4668 207.523 18.7835 208.057 19.417C208.59 20.0505 208.856 20.9574 208.856 22.1377V22.6641H203.846C203.864 23.3932 204.076 23.9834 204.481 24.4346C204.892 24.8812 205.411 25.1045 206.04 25.1045C206.487 25.1045 206.865 25.0133 207.175 24.8311C207.485 24.6488 207.756 24.4072 207.988 24.1064L208.761 24.708C208.141 25.6605 207.211 26.1367 205.972 26.1367ZM205.814 19.5059C205.304 19.5059 204.876 19.6927 204.529 20.0664C204.183 20.4355 203.969 20.9551 203.887 21.625H207.592V21.5293C207.555 20.8867 207.382 20.39 207.072 20.0391C206.762 19.6836 206.343 19.5059 205.814 19.5059ZM220.047 22.3838C220.047 23.5094 219.789 24.4163 219.274 25.1045C218.759 25.7926 218.062 26.1367 217.183 26.1367C216.285 26.1367 215.578 25.8519 215.063 25.2822V28.8438H213.799V18.6035H214.954L215.016 19.4238C215.531 18.7858 216.246 18.4668 217.162 18.4668C218.051 18.4668 218.753 18.8018 219.268 19.4717C219.787 20.1416 220.047 21.0736 220.047 22.2676V22.3838ZM218.782 22.2402C218.782 21.4062 218.604 20.7477 218.249 20.2646C217.894 19.7816 217.406 19.54 216.786 19.54C216.021 19.54 215.446 19.8796 215.063 20.5586V24.0928C215.442 24.7673 216.021 25.1045 216.8 25.1045C217.406 25.1045 217.887 24.8652 218.242 24.3867C218.602 23.9036 218.782 23.1882 218.782 22.2402ZM221.325 22.2334C221.325 21.5088 221.466 20.8571 221.749 20.2783C222.036 19.6995 222.433 19.2529 222.938 18.9385C223.449 18.624 224.03 18.4668 224.682 18.4668C225.689 18.4668 226.502 18.8154 227.122 19.5127C227.746 20.21 228.059 21.1374 228.059 22.2949V22.3838C228.059 23.1038 227.92 23.751 227.642 24.3252C227.368 24.8949 226.974 25.3392 226.459 25.6582C225.949 25.9772 225.361 26.1367 224.695 26.1367C223.693 26.1367 222.879 25.7881 222.255 25.0908C221.635 24.3936 221.325 23.4707 221.325 22.3223V22.2334ZM222.597 22.3838C222.597 23.2041 222.786 23.8626 223.164 24.3594C223.547 24.8561 224.057 25.1045 224.695 25.1045C225.338 25.1045 225.848 24.8538 226.227 24.3525C226.605 23.8467 226.794 23.1403 226.794 22.2334C226.794 21.4222 226.6 20.766 226.213 20.2646C225.83 19.7588 225.32 19.5059 224.682 19.5059C224.057 19.5059 223.554 19.7542 223.171 20.251C222.788 20.7477 222.597 21.4587 222.597 22.3838ZM233.22 19.7383C233.028 19.7064 232.821 19.6904 232.598 19.6904C231.768 19.6904 231.205 20.0436 230.909 20.75V26H229.645V18.6035H230.875L230.896 19.458C231.31 18.7972 231.898 18.4668 232.659 18.4668C232.905 18.4668 233.092 18.4987 233.22 18.5625V19.7383ZM242.428 26C242.355 25.8542 242.296 25.5944 242.25 25.2207C241.662 25.8314 240.96 26.1367 240.145 26.1367C239.415 26.1367 238.816 25.9316 238.347 25.5215C237.882 25.1068 237.649 24.5827 237.649 23.9492C237.649 23.179 237.941 22.582 238.524 22.1582C239.112 21.7298 239.937 21.5156 240.999 21.5156H242.229V20.9346C242.229 20.4925 242.097 20.1416 241.833 19.8818C241.569 19.6175 241.179 19.4854 240.664 19.4854C240.213 19.4854 239.835 19.5993 239.529 19.8271C239.224 20.055 239.071 20.3307 239.071 20.6543H237.8C237.8 20.2852 237.93 19.9297 238.189 19.5879C238.454 19.2415 238.809 18.9681 239.256 18.7676C239.707 18.5671 240.201 18.4668 240.739 18.4668C241.591 18.4668 242.259 18.681 242.742 19.1094C243.225 19.5332 243.476 20.1188 243.494 20.8662V24.2705C243.494 24.9495 243.581 25.4896 243.754 25.8906V26H242.428ZM240.329 25.0361C240.726 25.0361 241.102 24.9336 241.457 24.7285C241.812 24.5234 242.07 24.2568 242.229 23.9287V22.4111H241.238C239.689 22.4111 238.914 22.8646 238.914 23.7715C238.914 24.168 239.046 24.4779 239.311 24.7012C239.575 24.9245 239.914 25.0361 240.329 25.0361ZM251.725 22.3838C251.725 23.5094 251.467 24.4163 250.952 25.1045C250.437 25.7926 249.74 26.1367 248.86 26.1367C247.963 26.1367 247.256 25.8519 246.741 25.2822V28.8438H245.477V18.6035H246.632L246.693 19.4238C247.208 18.7858 247.924 18.4668 248.84 18.4668C249.729 18.4668 250.43 18.8018 250.945 19.4717C251.465 20.1416 251.725 21.0736 251.725 22.2676V22.3838ZM250.46 22.2402C250.46 21.4062 250.282 20.7477 249.927 20.2646C249.571 19.7816 249.084 19.54 248.464 19.54C247.698 19.54 247.124 19.8796 246.741 20.5586V24.0928C247.119 24.7673 247.698 25.1045 248.478 25.1045C249.084 25.1045 249.564 24.8652 249.92 24.3867C250.28 23.9036 250.46 23.1882 250.46 22.2402ZM256.913 19.7383C256.722 19.7064 256.514 19.6904 256.291 19.6904C255.462 19.6904 254.899 20.0436 254.603 20.75V26H253.338V18.6035H254.568L254.589 19.458C255.004 18.7972 255.591 18.4668 256.353 18.4668C256.599 18.4668 256.785 18.4987 256.913 18.5625V19.7383ZM257.61 22.2334C257.61 21.5088 257.752 20.8571 258.034 20.2783C258.321 19.6995 258.718 19.2529 259.224 18.9385C259.734 18.624 260.315 18.4668 260.967 18.4668C261.974 18.4668 262.787 18.8154 263.407 19.5127C264.032 20.21 264.344 21.1374 264.344 22.2949V22.3838C264.344 23.1038 264.205 23.751 263.927 24.3252C263.653 24.8949 263.259 25.3392 262.744 25.6582C262.234 25.9772 261.646 26.1367 260.98 26.1367C259.978 26.1367 259.164 25.7881 258.54 25.0908C257.92 24.3936 257.61 23.4707 257.61 22.3223V22.2334ZM258.882 22.3838C258.882 23.2041 259.071 23.8626 259.449 24.3594C259.832 24.8561 260.342 25.1045 260.98 25.1045C261.623 25.1045 262.133 24.8538 262.512 24.3525C262.89 23.8467 263.079 23.1403 263.079 22.2334C263.079 21.4222 262.885 20.766 262.498 20.2646C262.115 19.7588 261.605 19.5059 260.967 19.5059C260.342 19.5059 259.839 19.7542 259.456 20.251C259.073 20.7477 258.882 21.4587 258.882 22.3838ZM272.191 22.3838C272.191 23.514 271.932 24.4232 271.412 25.1113C270.893 25.7949 270.195 26.1367 269.32 26.1367C268.386 26.1367 267.664 25.8063 267.153 25.1455L267.092 26H265.93V15.5H267.194V19.417C267.705 18.7835 268.409 18.4668 269.307 18.4668C270.204 18.4668 270.909 18.8063 271.419 19.4854C271.934 20.1644 272.191 21.0941 272.191 22.2744V22.3838ZM270.927 22.2402C270.927 21.3789 270.76 20.7135 270.428 20.2441C270.095 19.7747 269.617 19.54 268.992 19.54C268.158 19.54 267.559 19.9274 267.194 20.7021V23.9014C267.582 24.6761 268.186 25.0635 269.006 25.0635C269.612 25.0635 270.084 24.8288 270.421 24.3594C270.758 23.89 270.927 23.1836 270.927 22.2402ZM278.357 26C278.285 25.8542 278.225 25.5944 278.18 25.2207C277.592 25.8314 276.89 26.1367 276.074 26.1367C275.345 26.1367 274.746 25.9316 274.276 25.5215C273.812 25.1068 273.579 24.5827 273.579 23.9492C273.579 23.179 273.871 22.582 274.454 22.1582C275.042 21.7298 275.867 21.5156 276.929 21.5156H278.159V20.9346C278.159 20.4925 278.027 20.1416 277.763 19.8818C277.498 19.6175 277.109 19.4854 276.594 19.4854C276.143 19.4854 275.764 19.5993 275.459 19.8271C275.154 20.055 275.001 20.3307 275.001 20.6543H273.729C273.729 20.2852 273.859 19.9297 274.119 19.5879C274.383 19.2415 274.739 18.9681 275.186 18.7676C275.637 18.5671 276.131 18.4668 276.669 18.4668C277.521 18.4668 278.189 18.681 278.672 19.1094C279.155 19.5332 279.406 20.1188 279.424 20.8662V24.2705C279.424 24.9495 279.51 25.4896 279.684 25.8906V26H278.357ZM276.259 25.0361C276.655 25.0361 277.031 24.9336 277.387 24.7285C277.742 24.5234 278 24.2568 278.159 23.9287V22.4111H277.168C275.618 22.4111 274.844 22.8646 274.844 23.7715C274.844 24.168 274.976 24.4779 275.24 24.7012C275.505 24.9245 275.844 25.0361 276.259 25.0361ZM284.373 25.1045C284.824 25.1045 285.218 24.9678 285.556 24.6943C285.893 24.4209 286.08 24.0791 286.116 23.6689H287.312C287.29 24.0928 287.144 24.4961 286.875 24.8789C286.606 25.2617 286.246 25.5671 285.795 25.7949C285.348 26.0228 284.874 26.1367 284.373 26.1367C283.366 26.1367 282.564 25.8018 281.967 25.1318C281.374 24.4574 281.078 23.5368 281.078 22.3701V22.1582C281.078 21.4382 281.21 20.7979 281.475 20.2373C281.739 19.6768 282.117 19.2415 282.609 18.9316C283.106 18.6217 283.692 18.4668 284.366 18.4668C285.196 18.4668 285.884 18.7152 286.431 19.2119C286.982 19.7087 287.276 20.3535 287.312 21.1465H286.116C286.08 20.668 285.897 20.276 285.569 19.9707C285.246 19.6608 284.845 19.5059 284.366 19.5059C283.724 19.5059 283.225 19.7383 282.869 20.2031C282.518 20.6634 282.343 21.3311 282.343 22.2061V22.4453C282.343 23.2975 282.518 23.9538 282.869 24.4141C283.22 24.8743 283.721 25.1045 284.373 25.1045ZM290.108 26H288.844V18.6035H290.108V26ZM288.741 16.6416C288.741 16.4365 288.803 16.2633 288.926 16.1221C289.053 15.9808 289.24 15.9102 289.486 15.9102C289.732 15.9102 289.919 15.9808 290.047 16.1221C290.174 16.2633 290.238 16.4365 290.238 16.6416C290.238 16.8467 290.174 17.0176 290.047 17.1543C289.919 17.291 289.732 17.3594 289.486 17.3594C289.24 17.3594 289.053 17.291 288.926 17.1543C288.803 17.0176 288.741 16.8467 288.741 16.6416ZM291.804 22.2334C291.804 21.5088 291.945 20.8571 292.228 20.2783C292.515 19.6995 292.911 19.2529 293.417 18.9385C293.927 18.624 294.508 18.4668 295.16 18.4668C296.167 18.4668 296.981 18.8154 297.601 19.5127C298.225 20.21 298.537 21.1374 298.537 22.2949V22.3838C298.537 23.1038 298.398 23.751 298.12 24.3252C297.847 24.8949 297.452 25.3392 296.938 25.6582C296.427 25.9772 295.839 26.1367 295.174 26.1367C294.171 26.1367 293.358 25.7881 292.733 25.0908C292.114 24.3936 291.804 23.4707 291.804 22.3223V22.2334ZM293.075 22.3838C293.075 23.2041 293.264 23.8626 293.643 24.3594C294.025 24.8561 294.536 25.1045 295.174 25.1045C295.816 25.1045 296.327 24.8538 296.705 24.3525C297.083 23.8467 297.272 23.1403 297.272 22.2334C297.272 21.4222 297.079 20.766 296.691 20.2646C296.309 19.7588 295.798 19.5059 295.16 19.5059C294.536 19.5059 294.032 19.7542 293.649 20.251C293.267 20.7477 293.075 21.4587 293.075 22.3838ZM295.734 15.5H297.266L295.434 17.5098H294.415L295.734 15.5ZM301.319 18.6035L301.36 19.5332C301.925 18.8223 302.664 18.4668 303.575 18.4668C305.138 18.4668 305.927 19.3486 305.94 21.1123V26H304.676V21.1055C304.671 20.5723 304.548 20.1781 304.307 19.9229C304.07 19.6676 303.698 19.54 303.192 19.54C302.782 19.54 302.422 19.6494 302.112 19.8682C301.802 20.0869 301.561 20.374 301.388 20.7295V26H300.123V18.6035H301.319Z" fill="#525252"/>
</svg>
