<svg width="80" height="80" viewBox="0 0 109 115" fill="none" xmlns="http://www.w3.org/2000/svg">
<rect x="0.0390625" width="108.557" height="115" rx="8" fill="#26B4FF"/>
<path d="M69.2344 63.9969C69.4781 62.675 69.4781 61.325 69.2344 60.0031L71.6531 58.6063C71.9344 58.4469 72.0562 58.1188 71.9625 57.8094C71.3344 55.7844 70.2563 53.9469 68.85 52.4281C68.6344 52.1938 68.2875 52.1375 68.0063 52.2969L65.5875 53.6938C64.5656 52.8219 63.3938 52.1469 62.1281 51.6969V48.9031C62.1281 48.5844 61.9031 48.3031 61.5938 48.2375C59.5031 47.7688 57.375 47.7875 55.3875 48.2375C55.0781 48.3031 54.8531 48.5844 54.8531 48.9031V51.6969C53.5875 52.1469 52.4156 52.8219 51.3938 53.6938L48.975 52.2969C48.7031 52.1375 48.3469 52.1938 48.1312 52.4281C46.725 53.9469 45.6469 55.7844 45.0188 57.8094C44.925 58.1188 45.0563 58.4469 45.3281 58.6063L47.7469 60.0031C47.5031 61.325 47.5031 62.675 47.7469 63.9969L45.3281 65.3938C45.0469 65.5531 44.925 65.8813 45.0188 66.1906C45.6469 68.2156 46.725 70.0438 48.1312 71.5719C48.3469 71.8063 48.6937 71.8625 48.975 71.7031L51.3938 70.3063C52.4156 71.1781 53.5875 71.8531 54.8531 72.3031V75.0969C54.8531 75.4156 55.0781 75.6969 55.3875 75.7625C57.4781 76.2313 59.6063 76.2125 61.5938 75.7625C61.9031 75.6969 62.1281 75.4156 62.1281 75.0969V72.3031C63.3938 71.8531 64.5656 71.1781 65.5875 70.3063L68.0063 71.7031C68.2781 71.8625 68.6344 71.8063 68.85 71.5719C70.2563 70.0531 71.3344 68.2156 71.9625 66.1906C72.0562 65.8813 71.925 65.5531 71.6531 65.3938L69.2344 63.9969ZM58.5 66.5469C55.9875 66.5469 53.9531 64.5031 53.9531 62C53.9531 59.4969 55.9969 57.4531 58.5 57.4531C61.0031 57.4531 63.0469 59.4969 63.0469 62C63.0469 64.5031 61.0125 66.5469 58.5 66.5469ZM21 53C24.3094 53 27 50.3094 27 47C27 43.6906 24.3094 41 21 41C17.6906 41 15 43.6906 15 47C15 50.3094 17.6906 53 21 53ZM42 56C42.1781 56 42.3469 55.9531 42.525 55.9438C43.3031 53.9094 44.4469 51.9969 45.9281 50.3938C46.6219 49.6438 47.6062 49.2125 48.6375 49.2125C49.2844 49.2125 49.9219 49.3813 50.475 49.7094L51.2156 50.1406C51.2906 50.0938 51.3656 50.0563 51.4406 50.0094C52.0969 48.6406 52.4906 47.1219 52.4906 45.5094C52.4906 39.7063 47.7938 35.0094 41.9906 35.0094C36.1875 35.0094 31.5 39.6969 31.5 45.5C31.5 51.3031 36.1969 56 42 56ZM51.8625 74.2344C51.6469 74.1219 51.4312 73.9906 51.225 73.8688C50.4562 74.3188 49.7906 74.7875 48.6469 74.7875C47.625 74.7875 46.6406 74.3563 45.9375 73.6063C44.2219 71.75 42.9094 69.4906 42.1687 67.0813C41.1656 63.8469 44.5031 62.4219 44.5875 62.3656C44.5781 62.1219 44.5781 61.8781 44.5875 61.6344L43.8469 61.2031C43.4906 60.9969 43.1906 60.7344 42.9281 60.4438C42.6187 60.4625 42.3188 60.5 42.0094 60.5C39.7031 60.5 37.5469 59.9375 35.5875 59H34.8094C28.8375 59 24 63.8375 24 69.8V72.5C24 74.9844 26.0156 77 28.5 77H52.4437C52.0969 76.4375 51.8625 75.8 51.8625 75.0969V74.2344ZM28.2281 57.7438C27.1406 56.6656 25.65 56 24 56H18C14.6906 56 12 58.6906 12 62V65C12 66.6594 13.3406 68 15 68H21.1781C21.7688 63.5563 24.45 59.8156 28.2281 57.7438Z" fill="white"/>
</svg>
