<svg width="44" height="52" viewBox="0 0 44 52" fill="none" xmlns="http://www.w3.org/2000/svg">
<path d="M17.2109 20.0078C16.8203 18.7578 16.8281 16.3438 17.0547 16.3438C17.7109 16.3438 17.6484 19.2266 17.2109 20.0078ZM17.0781 23.6953C16.4766 25.2734 15.7266 27.0781 14.8594 28.5938C16.2891 28.0469 17.9062 27.25 19.7734 26.8828C18.7812 26.1328 17.8281 25.0547 17.0781 23.6953ZM9.72656 33.4453C9.72656 33.5078 10.7578 33.0234 12.4531 30.3047C11.9297 30.7969 10.1797 32.2188 9.72656 33.4453ZM22.375 12.5H33V38.125C33 39.1641 32.1641 40 31.125 40H4.875C3.83594 40 3 39.1641 3 38.125V1.875C3 0.835938 3.83594 0 4.875 0H20.5V10.625C20.5 11.6562 21.3438 12.5 22.375 12.5ZM21.75 25.9219C20.1875 24.9688 19.1484 23.6562 18.4141 21.7188C18.7656 20.2734 19.3203 18.0781 18.8984 16.7031C18.5312 14.4062 15.5859 14.6328 15.1641 16.1719C14.7734 17.6016 15.1328 19.6172 15.7969 22.1875C14.8906 24.3438 13.5547 27.2344 12.6094 28.8906C12.6016 28.8906 12.6016 28.8984 12.5938 28.8984C10.4766 29.9844 6.84375 32.375 8.33594 34.2109C8.77344 34.75 9.58594 34.9922 10.0156 34.9922C11.4141 34.9922 12.8047 33.5859 14.7891 30.1641C16.8047 29.5 19.0156 28.6719 20.9609 28.3516C22.6562 29.2734 24.6406 29.875 25.9609 29.875C28.2422 29.875 28.3984 27.375 27.5 26.4844C26.4141 25.4219 23.2578 25.7266 21.75 25.9219ZM32.4531 8.20312L24.7969 0.546875C24.4453 0.195312 23.9688 0 23.4688 0H23V10H33V9.52344C33 9.03125 32.8047 8.55469 32.4531 8.20312ZM26.6641 28.1484C26.9844 27.9375 26.4688 27.2187 23.3203 27.4453C26.2188 28.6797 26.6641 28.1484 26.6641 28.1484Z" fill="#E60000"/>
<path d="M4.27588 49.3301H1.59521L0.993164 51H0.123047L2.56641 44.6016H3.30469L5.75244 51H4.88672L4.27588 49.3301ZM1.8501 48.6357H4.02539L2.93555 45.6431L1.8501 48.6357ZM8.39355 50.4243C8.68359 50.4243 8.93701 50.3364 9.15381 50.1606C9.37061 49.9849 9.49072 49.7651 9.51416 49.5015H10.2832C10.2686 49.7739 10.1748 50.0332 10.002 50.2793C9.8291 50.5254 9.59766 50.7217 9.30762 50.8682C9.02051 51.0146 8.71582 51.0879 8.39355 51.0879C7.74609 51.0879 7.23047 50.8726 6.84668 50.4419C6.46582 50.0083 6.27539 49.4165 6.27539 48.6665V48.5303C6.27539 48.0674 6.36035 47.6558 6.53027 47.2954C6.7002 46.9351 6.94336 46.6553 7.25977 46.4561C7.5791 46.2568 7.95557 46.1572 8.38916 46.1572C8.92236 46.1572 9.36475 46.3169 9.71631 46.6362C10.0708 46.9556 10.2598 47.3701 10.2832 47.8799H9.51416C9.49072 47.5723 9.37354 47.3203 9.1626 47.124C8.95459 46.9248 8.69678 46.8252 8.38916 46.8252C7.97607 46.8252 7.65527 46.9746 7.42676 47.2734C7.20117 47.5693 7.08838 47.9985 7.08838 48.561V48.7148C7.08838 49.2627 7.20117 49.6846 7.42676 49.9805C7.65234 50.2764 7.97461 50.4243 8.39355 50.4243ZM12.3003 45.0938V46.2451H13.188V46.8735H12.3003V49.8223C12.3003 50.0127 12.3398 50.1562 12.4189 50.2529C12.498 50.3467 12.6328 50.3936 12.8232 50.3936C12.917 50.3936 13.0459 50.376 13.21 50.3408V51C12.9961 51.0586 12.7881 51.0879 12.5859 51.0879C12.2227 51.0879 11.9487 50.978 11.7642 50.7583C11.5796 50.5386 11.4873 50.2266 11.4873 49.8223V46.8735H10.6216V46.2451H11.4873V45.0938H12.3003ZM17.0771 51C17.0303 50.9062 16.9922 50.7393 16.9629 50.499C16.585 50.8916 16.1338 51.0879 15.6094 51.0879C15.1406 51.0879 14.7554 50.9561 14.4536 50.6924C14.1548 50.4258 14.0054 50.0889 14.0054 49.6816C14.0054 49.1865 14.1929 48.8027 14.5679 48.5303C14.9458 48.2549 15.4761 48.1172 16.1587 48.1172H16.9497V47.7437C16.9497 47.4595 16.8647 47.2339 16.6948 47.0669C16.5249 46.897 16.2744 46.812 15.9434 46.812C15.6533 46.812 15.4102 46.8853 15.2139 47.0317C15.0176 47.1782 14.9194 47.3555 14.9194 47.5635H14.1021C14.1021 47.3262 14.1855 47.0977 14.3525 46.8779C14.5225 46.6553 14.751 46.4795 15.0381 46.3506C15.3281 46.2217 15.646 46.1572 15.9917 46.1572C16.5396 46.1572 16.9688 46.2949 17.2793 46.5703C17.5898 46.8428 17.751 47.2192 17.7627 47.6997V49.8882C17.7627 50.3247 17.8184 50.6719 17.9297 50.9297V51H17.0771ZM15.728 50.3804C15.9829 50.3804 16.2246 50.3145 16.4531 50.1826C16.6816 50.0508 16.8472 49.8794 16.9497 49.6685V48.6929H16.3125C15.3164 48.6929 14.8184 48.9844 14.8184 49.5674C14.8184 49.8223 14.9033 50.0215 15.0732 50.165C15.2432 50.3086 15.4614 50.3804 15.728 50.3804ZM21.0718 48.583C21.0718 47.8535 21.2446 47.2676 21.5903 46.8252C21.936 46.3799 22.3887 46.1572 22.9482 46.1572C23.5049 46.1572 23.9458 46.3477 24.271 46.7285V44.25H25.084V51H24.3369L24.2974 50.4902C23.9722 50.8887 23.5195 51.0879 22.9395 51.0879C22.3887 51.0879 21.939 50.8623 21.5903 50.4111C21.2446 49.96 21.0718 49.3711 21.0718 48.6445V48.583ZM21.8848 48.6753C21.8848 49.2144 21.9961 49.6362 22.2188 49.9409C22.4414 50.2456 22.749 50.3979 23.1416 50.3979C23.6572 50.3979 24.0337 50.1665 24.271 49.7036V47.5195C24.0278 47.0713 23.6543 46.8472 23.1504 46.8472C22.752 46.8472 22.4414 47.001 22.2188 47.3086C21.9961 47.6162 21.8848 48.0718 21.8848 48.6753ZM28.3228 51.0879C27.6782 51.0879 27.1538 50.877 26.7495 50.4551C26.3452 50.0303 26.1431 49.4634 26.1431 48.7544V48.605C26.1431 48.1333 26.2324 47.7129 26.4111 47.3438C26.5928 46.9717 26.8447 46.6816 27.167 46.4736C27.4922 46.2627 27.8438 46.1572 28.2217 46.1572C28.8398 46.1572 29.3203 46.3608 29.6631 46.7681C30.0059 47.1753 30.1772 47.7583 30.1772 48.5171V48.8555H26.9561C26.9678 49.3242 27.104 49.7036 27.3647 49.9937C27.6284 50.2808 27.9624 50.4243 28.3667 50.4243C28.6538 50.4243 28.897 50.3657 29.0962 50.2485C29.2954 50.1313 29.4697 49.9761 29.6191 49.7827L30.1157 50.1694C29.7173 50.7817 29.1196 51.0879 28.3228 51.0879ZM28.2217 46.8252C27.8936 46.8252 27.6182 46.9453 27.3955 47.1855C27.1729 47.4229 27.0352 47.7568 26.9824 48.1875H29.3643V48.126C29.3408 47.7129 29.2295 47.3936 29.0303 47.168C28.8311 46.9395 28.5615 46.8252 28.2217 46.8252ZM35.2617 50.4243C35.5518 50.4243 35.8052 50.3364 36.022 50.1606C36.2388 49.9849 36.3589 49.7651 36.3823 49.5015H37.1514C37.1367 49.7739 37.043 50.0332 36.8701 50.2793C36.6973 50.5254 36.4658 50.7217 36.1758 50.8682C35.8887 51.0146 35.584 51.0879 35.2617 51.0879C34.6143 51.0879 34.0986 50.8726 33.7148 50.4419C33.334 50.0083 33.1436 49.4165 33.1436 48.6665V48.5303C33.1436 48.0674 33.2285 47.6558 33.3984 47.2954C33.5684 46.9351 33.8115 46.6553 34.1279 46.4561C34.4473 46.2568 34.8237 46.1572 35.2573 46.1572C35.7905 46.1572 36.2329 46.3169 36.5845 46.6362C36.939 46.9556 37.1279 47.3701 37.1514 47.8799H36.3823C36.3589 47.5723 36.2417 47.3203 36.0308 47.124C35.8228 46.9248 35.5649 46.8252 35.2573 46.8252C34.8442 46.8252 34.5234 46.9746 34.2949 47.2734C34.0693 47.5693 33.9565 47.9985 33.9565 48.561V48.7148C33.9565 49.2627 34.0693 49.6846 34.2949 49.9805C34.5205 50.2764 34.8428 50.4243 35.2617 50.4243ZM38.083 50.5737C38.083 50.4331 38.124 50.3159 38.2061 50.2222C38.291 50.1284 38.417 50.0815 38.584 50.0815C38.751 50.0815 38.877 50.1284 38.9619 50.2222C39.0498 50.3159 39.0938 50.4331 39.0938 50.5737C39.0938 50.7085 39.0498 50.8213 38.9619 50.9121C38.877 51.0029 38.751 51.0483 38.584 51.0483C38.417 51.0483 38.291 51.0029 38.2061 50.9121C38.124 50.8213 38.083 50.7085 38.083 50.5737ZM40.4561 50.5737C40.4561 50.4331 40.4971 50.3159 40.5791 50.2222C40.6641 50.1284 40.79 50.0815 40.957 50.0815C41.124 50.0815 41.25 50.1284 41.335 50.2222C41.4229 50.3159 41.4668 50.4331 41.4668 50.5737C41.4668 50.7085 41.4229 50.8213 41.335 50.9121C41.25 51.0029 41.124 51.0483 40.957 51.0483C40.79 51.0483 40.6641 51.0029 40.5791 50.9121C40.4971 50.8213 40.4561 50.7085 40.4561 50.5737ZM42.8291 50.5737C42.8291 50.4331 42.8701 50.3159 42.9521 50.2222C43.0371 50.1284 43.1631 50.0815 43.3301 50.0815C43.4971 50.0815 43.623 50.1284 43.708 50.2222C43.7959 50.3159 43.8398 50.4331 43.8398 50.5737C43.8398 50.7085 43.7959 50.8213 43.708 50.9121C43.623 51.0029 43.4971 51.0483 43.3301 51.0483C43.1631 51.0483 43.0371 51.0029 42.9521 50.9121C42.8701 50.8213 42.8291 50.7085 42.8291 50.5737Z" fill="black"/>
</svg>
