<svg width="46" height="52" viewBox="0 0 46 52" fill="none" xmlns="http://www.w3.org/2000/svg">
<path d="M17.2109 20.0078C16.8203 18.7578 16.8281 16.3438 17.0547 16.3438C17.7109 16.3438 17.6484 19.2266 17.2109 20.0078ZM17.0781 23.6953C16.4766 25.2734 15.7266 27.0781 14.8594 28.5938C16.2891 28.0469 17.9062 27.25 19.7734 26.8828C18.7812 26.1328 17.8281 25.0547 17.0781 23.6953ZM9.72656 33.4453C9.72656 33.5078 10.7578 33.0234 12.4531 30.3047C11.9297 30.7969 10.1797 32.2188 9.72656 33.4453ZM22.375 12.5H33V38.125C33 39.1641 32.1641 40 31.125 40H4.875C3.83594 40 3 39.1641 3 38.125V1.875C3 0.835938 3.83594 0 4.875 0H20.5V10.625C20.5 11.6562 21.3438 12.5 22.375 12.5ZM21.75 25.9219C20.1875 24.9688 19.1484 23.6562 18.4141 21.7188C18.7656 20.2734 19.3203 18.0781 18.8984 16.7031C18.5312 14.4062 15.5859 14.6328 15.1641 16.1719C14.7734 17.6016 15.1328 19.6172 15.7969 22.1875C14.8906 24.3438 13.5547 27.2344 12.6094 28.8906C12.6016 28.8906 12.6016 28.8984 12.5938 28.8984C10.4766 29.9844 6.84375 32.375 8.33594 34.2109C8.77344 34.75 9.58594 34.9922 10.0156 34.9922C11.4141 34.9922 12.8047 33.5859 14.7891 30.1641C16.8047 29.5 19.0156 28.6719 20.9609 28.3516C22.6562 29.2734 24.6406 29.875 25.9609 29.875C28.2422 29.875 28.3984 27.375 27.5 26.4844C26.4141 25.4219 23.2578 25.7266 21.75 25.9219ZM32.4531 8.20312L24.7969 0.546875C24.4453 0.195312 23.9688 0 23.4688 0H23V10H33V9.52344C33 9.03125 32.8047 8.55469 32.4531 8.20312ZM26.6641 28.1484C26.9844 27.9375 26.4688 27.2187 23.3203 27.4453C26.2188 28.6797 26.6641 28.1484 26.6641 28.1484Z" fill="#E60000"/>
<path d="M5.44922 48.9697C5.37012 49.6465 5.11963 50.1694 4.69775 50.5386C4.27881 50.9048 3.7207 51.0879 3.02344 51.0879C2.26758 51.0879 1.66113 50.8169 1.2041 50.2749C0.75 49.7329 0.522949 49.0078 0.522949 48.0996V47.4844C0.522949 46.8896 0.628418 46.3667 0.839355 45.9155C1.05322 45.4644 1.35498 45.1187 1.74463 44.8784C2.13428 44.6353 2.58545 44.5137 3.09814 44.5137C3.77783 44.5137 4.32275 44.7041 4.73291 45.085C5.14307 45.4629 5.38184 45.9873 5.44922 46.6582H4.60107C4.52783 46.1484 4.36816 45.7793 4.12207 45.5508C3.87891 45.3223 3.5376 45.208 3.09814 45.208C2.55908 45.208 2.13574 45.4072 1.82812 45.8057C1.52344 46.2041 1.37109 46.771 1.37109 47.5063V48.126C1.37109 48.8203 1.51611 49.3726 1.80615 49.7827C2.09619 50.1929 2.50195 50.3979 3.02344 50.3979C3.49219 50.3979 3.85107 50.2925 4.1001 50.0815C4.35205 49.8677 4.51904 49.4971 4.60107 48.9697H5.44922ZM9.41309 51C9.36621 50.9062 9.32812 50.7393 9.29883 50.499C8.9209 50.8916 8.46973 51.0879 7.94531 51.0879C7.47656 51.0879 7.09131 50.9561 6.78955 50.6924C6.49072 50.4258 6.34131 50.0889 6.34131 49.6816C6.34131 49.1865 6.52881 48.8027 6.90381 48.5303C7.28174 48.2549 7.81201 48.1172 8.49463 48.1172H9.28564V47.7437C9.28564 47.4595 9.20068 47.2339 9.03076 47.0669C8.86084 46.897 8.61035 46.812 8.2793 46.812C7.98926 46.812 7.74609 46.8853 7.5498 47.0317C7.35352 47.1782 7.25537 47.3555 7.25537 47.5635H6.43799C6.43799 47.3262 6.52148 47.0977 6.68848 46.8779C6.8584 46.6553 7.08691 46.4795 7.37402 46.3506C7.66406 46.2217 7.98193 46.1572 8.32764 46.1572C8.87549 46.1572 9.30469 46.2949 9.61523 46.5703C9.92578 46.8428 10.0869 47.2192 10.0986 47.6997V49.8882C10.0986 50.3247 10.1543 50.6719 10.2656 50.9297V51H9.41309ZM8.06396 50.3804C8.31885 50.3804 8.56055 50.3145 8.78906 50.1826C9.01758 50.0508 9.18311 49.8794 9.28564 49.6685V48.6929H8.64844C7.65234 48.6929 7.1543 48.9844 7.1543 49.5674C7.1543 49.8223 7.23926 50.0215 7.40918 50.165C7.5791 50.3086 7.79736 50.3804 8.06396 50.3804ZM8.81543 44.25H9.7998L8.62207 45.542H7.96729L8.81543 44.25ZM12.1377 46.2451L12.1597 46.7725C12.5083 46.3623 12.9785 46.1572 13.5703 46.1572C14.2354 46.1572 14.688 46.4121 14.9282 46.9219C15.0864 46.6934 15.2915 46.5088 15.5435 46.3682C15.7983 46.2275 16.0986 46.1572 16.4443 46.1572C17.4873 46.1572 18.0176 46.7095 18.0352 47.814V51H17.2222V47.8623C17.2222 47.5225 17.1445 47.269 16.9893 47.1021C16.834 46.9321 16.5732 46.8472 16.207 46.8472C15.9053 46.8472 15.6548 46.938 15.4556 47.1196C15.2563 47.2983 15.1406 47.54 15.1084 47.8447V51H14.291V47.8843C14.291 47.1929 13.9526 46.8472 13.2759 46.8472C12.7427 46.8472 12.3779 47.0742 12.1816 47.5283V51H11.3687V46.2451H12.1377ZM22.2012 51C22.1543 50.9062 22.1162 50.7393 22.0869 50.499C21.709 50.8916 21.2578 51.0879 20.7334 51.0879C20.2646 51.0879 19.8794 50.9561 19.5776 50.6924C19.2788 50.4258 19.1294 50.0889 19.1294 49.6816C19.1294 49.1865 19.3169 48.8027 19.6919 48.5303C20.0698 48.2549 20.6001 48.1172 21.2827 48.1172H22.0737V47.7437C22.0737 47.4595 21.9888 47.2339 21.8188 47.0669C21.6489 46.897 21.3984 46.812 21.0674 46.812C20.7773 46.812 20.5342 46.8853 20.3379 47.0317C20.1416 47.1782 20.0435 47.3555 20.0435 47.5635H19.2261C19.2261 47.3262 19.3096 47.0977 19.4766 46.8779C19.6465 46.6553 19.875 46.4795 20.1621 46.3506C20.4521 46.2217 20.77 46.1572 21.1157 46.1572C21.6636 46.1572 22.0928 46.2949 22.4033 46.5703C22.7139 46.8428 22.875 47.2192 22.8867 47.6997V49.8882C22.8867 50.3247 22.9424 50.6719 23.0537 50.9297V51H22.2012ZM20.8521 50.3804C21.1069 50.3804 21.3486 50.3145 21.5771 50.1826C21.8057 50.0508 21.9712 49.8794 22.0737 49.6685V48.6929H21.4365C20.4404 48.6929 19.9424 48.9844 19.9424 49.5674C19.9424 49.8223 20.0273 50.0215 20.1973 50.165C20.3672 50.3086 20.5854 50.3804 20.8521 50.3804ZM26.4595 46.9746C26.3364 46.9541 26.2031 46.9438 26.0596 46.9438C25.5264 46.9438 25.1646 47.1709 24.9741 47.625V51H24.1611V46.2451H24.9521L24.9653 46.7944C25.2319 46.3696 25.6099 46.1572 26.0991 46.1572C26.2573 46.1572 26.3774 46.1777 26.4595 46.2188V46.9746ZM29.9707 51C29.9238 50.9062 29.8857 50.7393 29.8564 50.499C29.4785 50.8916 29.0273 51.0879 28.5029 51.0879C28.0342 51.0879 27.6489 50.9561 27.3472 50.6924C27.0483 50.4258 26.8989 50.0889 26.8989 49.6816C26.8989 49.1865 27.0864 48.8027 27.4614 48.5303C27.8394 48.2549 28.3696 48.1172 29.0522 48.1172H29.8433V47.7437C29.8433 47.4595 29.7583 47.2339 29.5884 47.0669C29.4185 46.897 29.168 46.812 28.8369 46.812C28.5469 46.812 28.3037 46.8853 28.1074 47.0317C27.9111 47.1782 27.813 47.3555 27.813 47.5635H26.9956C26.9956 47.3262 27.0791 47.0977 27.2461 46.8779C27.416 46.6553 27.6445 46.4795 27.9316 46.3506C28.2217 46.2217 28.5396 46.1572 28.8853 46.1572C29.4331 46.1572 29.8623 46.2949 30.1729 46.5703C30.4834 46.8428 30.6445 47.2192 30.6562 47.6997V49.8882C30.6562 50.3247 30.7119 50.6719 30.8232 50.9297V51H29.9707ZM28.6216 50.3804C28.8765 50.3804 29.1182 50.3145 29.3467 50.1826C29.5752 50.0508 29.7407 49.8794 29.8433 49.6685V48.6929H29.2061C28.21 48.6929 27.7119 48.9844 27.7119 49.5674C27.7119 49.8223 27.7969 50.0215 27.9668 50.165C28.1367 50.3086 28.355 50.3804 28.6216 50.3804ZM33.9653 48.583C33.9653 47.8535 34.1382 47.2676 34.4839 46.8252C34.8296 46.3799 35.2822 46.1572 35.8418 46.1572C36.3984 46.1572 36.8394 46.3477 37.1646 46.7285V44.25H37.9775V51H37.2305L37.1909 50.4902C36.8657 50.8887 36.4131 51.0879 35.833 51.0879C35.2822 51.0879 34.8325 50.8623 34.4839 50.4111C34.1382 49.96 33.9653 49.3711 33.9653 48.6445V48.583ZM34.7783 48.6753C34.7783 49.2144 34.8896 49.6362 35.1123 49.9409C35.335 50.2456 35.6426 50.3979 36.0352 50.3979C36.5508 50.3979 36.9272 50.1665 37.1646 49.7036V47.5195C36.9214 47.0713 36.5479 46.8472 36.0439 46.8472C35.6455 46.8472 35.335 47.001 35.1123 47.3086C34.8896 47.6162 34.7783 48.0718 34.7783 48.6753ZM39.2607 50.5737C39.2607 50.4331 39.3018 50.3159 39.3838 50.2222C39.4688 50.1284 39.5947 50.0815 39.7617 50.0815C39.9287 50.0815 40.0547 50.1284 40.1396 50.2222C40.2275 50.3159 40.2715 50.4331 40.2715 50.5737C40.2715 50.7085 40.2275 50.8213 40.1396 50.9121C40.0547 51.0029 39.9287 51.0483 39.7617 51.0483C39.5947 51.0483 39.4688 51.0029 39.3838 50.9121C39.3018 50.8213 39.2607 50.7085 39.2607 50.5737ZM41.6338 50.5737C41.6338 50.4331 41.6748 50.3159 41.7568 50.2222C41.8418 50.1284 41.9678 50.0815 42.1348 50.0815C42.3018 50.0815 42.4277 50.1284 42.5127 50.2222C42.6006 50.3159 42.6445 50.4331 42.6445 50.5737C42.6445 50.7085 42.6006 50.8213 42.5127 50.9121C42.4277 51.0029 42.3018 51.0483 42.1348 51.0483C41.9678 51.0483 41.8418 51.0029 41.7568 50.9121C41.6748 50.8213 41.6338 50.7085 41.6338 50.5737ZM44.0068 50.5737C44.0068 50.4331 44.0479 50.3159 44.1299 50.2222C44.2148 50.1284 44.3408 50.0815 44.5078 50.0815C44.6748 50.0815 44.8008 50.1284 44.8857 50.2222C44.9736 50.3159 45.0176 50.4331 45.0176 50.5737C45.0176 50.7085 44.9736 50.8213 44.8857 50.9121C44.8008 51.0029 44.6748 51.0483 44.5078 51.0483C44.3408 51.0483 44.2148 51.0029 44.1299 50.9121C44.0479 50.8213 44.0068 50.7085 44.0068 50.5737Z" fill="black"/>
</svg>
