<svg width="43" height="53" viewBox="0 0 43 53" fill="none" xmlns="http://www.w3.org/2000/svg">
<path d="M17.2109 20.0078C16.8203 18.7578 16.8281 16.3438 17.0547 16.3438C17.7109 16.3438 17.6484 19.2266 17.2109 20.0078ZM17.0781 23.6953C16.4766 25.2734 15.7266 27.0781 14.8594 28.5938C16.2891 28.0469 17.9062 27.25 19.7734 26.8828C18.7812 26.1328 17.8281 25.0547 17.0781 23.6953ZM9.72656 33.4453C9.72656 33.5078 10.7578 33.0234 12.4531 30.3047C11.9297 30.7969 10.1797 32.2188 9.72656 33.4453ZM22.375 12.5H33V38.125C33 39.1641 32.1641 40 31.125 40H4.875C3.83594 40 3 39.1641 3 38.125V1.875C3 0.835938 3.83594 0 4.875 0H20.5V10.625C20.5 11.6562 21.3438 12.5 22.375 12.5ZM21.75 25.9219C20.1875 24.9688 19.1484 23.6562 18.4141 21.7188C18.7656 20.2734 19.3203 18.0781 18.8984 16.7031C18.5312 14.4062 15.5859 14.6328 15.1641 16.1719C14.7734 17.6016 15.1328 19.6172 15.7969 22.1875C14.8906 24.3438 13.5547 27.2344 12.6094 28.8906C12.6016 28.8906 12.6016 28.8984 12.5938 28.8984C10.4766 29.9844 6.84375 32.375 8.33594 34.2109C8.77344 34.75 9.58594 34.9922 10.0156 34.9922C11.4141 34.9922 12.8047 33.5859 14.7891 30.1641C16.8047 29.5 19.0156 28.6719 20.9609 28.3516C22.6562 29.2734 24.6406 29.875 25.9609 29.875C28.2422 29.875 28.3984 27.375 27.5 26.4844C26.4141 25.4219 23.2578 25.7266 21.75 25.9219ZM32.4531 8.20312L24.7969 0.546875C24.4453 0.195312 23.9688 0 23.4688 0H23V10H33V9.52344C33 9.03125 32.8047 8.55469 32.4531 8.20312ZM26.6641 28.1484C26.9844 27.9375 26.4688 27.2187 23.3203 27.4453C26.2188 28.6797 26.6641 28.1484 26.6641 28.1484Z" fill="#E60000"/>
<path d="M1.59082 50.3101H4.62305V51H0.742676V44.6016H1.59082V50.3101ZM5.24268 48.5786C5.24268 48.1128 5.3335 47.6938 5.51514 47.3218C5.69971 46.9497 5.95459 46.6626 6.27979 46.4604C6.60791 46.2583 6.98145 46.1572 7.40039 46.1572C8.04785 46.1572 8.5708 46.3813 8.96924 46.8296C9.37061 47.2778 9.57129 47.874 9.57129 48.6182V48.6753C9.57129 49.1382 9.48193 49.5542 9.30322 49.9233C9.12744 50.2896 8.87402 50.5752 8.54297 50.7803C8.21484 50.9854 7.83691 51.0879 7.40918 51.0879C6.76465 51.0879 6.2417 50.8638 5.84033 50.4155C5.44189 49.9673 5.24268 49.374 5.24268 48.6357V48.5786ZM6.06006 48.6753C6.06006 49.2026 6.18164 49.626 6.4248 49.9453C6.6709 50.2646 6.99902 50.4243 7.40918 50.4243C7.82227 50.4243 8.15039 50.2632 8.39355 49.9409C8.63672 49.6157 8.7583 49.1616 8.7583 48.5786C8.7583 48.0571 8.63379 47.6353 8.38477 47.313C8.13867 46.9878 7.81055 46.8252 7.40039 46.8252C6.99902 46.8252 6.67529 46.9849 6.4292 47.3042C6.18311 47.6235 6.06006 48.0806 6.06006 48.6753ZM10.3975 48.583C10.3975 47.8418 10.5688 47.2529 10.9116 46.8164C11.2544 46.377 11.7085 46.1572 12.2739 46.1572C12.854 46.1572 13.3066 46.3623 13.6318 46.7725L13.6714 46.2451H14.4141V50.8857C14.4141 51.501 14.231 51.9858 13.8647 52.3403C13.5015 52.6948 13.0122 52.8721 12.397 52.8721C12.0542 52.8721 11.7188 52.7988 11.3906 52.6523C11.0625 52.5059 10.812 52.3052 10.6392 52.0503L11.061 51.5625C11.4097 51.9932 11.8359 52.2085 12.3398 52.2085C12.7354 52.2085 13.043 52.0972 13.2627 51.8745C13.4854 51.6519 13.5967 51.3384 13.5967 50.9341V50.5254C13.2715 50.9004 12.8276 51.0879 12.2651 51.0879C11.7085 51.0879 11.2573 50.8638 10.9116 50.4155C10.5688 49.9673 10.3975 49.3564 10.3975 48.583ZM11.2148 48.6753C11.2148 49.2114 11.3247 49.6333 11.5444 49.9409C11.7642 50.2456 12.0718 50.3979 12.4673 50.3979C12.98 50.3979 13.3564 50.165 13.5967 49.6992V47.5283C13.3477 47.0742 12.9741 46.8472 12.4761 46.8472C12.0806 46.8472 11.7715 47.001 11.5488 47.3086C11.3262 47.6162 11.2148 48.0718 11.2148 48.6753ZM15.4292 48.5786C15.4292 48.1128 15.52 47.6938 15.7017 47.3218C15.8862 46.9497 16.1411 46.6626 16.4663 46.4604C16.7944 46.2583 17.168 46.1572 17.5869 46.1572C18.2344 46.1572 18.7573 46.3813 19.1558 46.8296C19.5571 47.2778 19.7578 47.874 19.7578 48.6182V48.6753C19.7578 49.1382 19.6685 49.5542 19.4897 49.9233C19.314 50.2896 19.0605 50.5752 18.7295 50.7803C18.4014 50.9854 18.0234 51.0879 17.5957 51.0879C16.9512 51.0879 16.4282 50.8638 16.0269 50.4155C15.6284 49.9673 15.4292 49.374 15.4292 48.6357V48.5786ZM16.2466 48.6753C16.2466 49.2026 16.3682 49.626 16.6113 49.9453C16.8574 50.2646 17.1855 50.4243 17.5957 50.4243C18.0088 50.4243 18.3369 50.2632 18.5801 49.9409C18.8232 49.6157 18.9448 49.1616 18.9448 48.5786C18.9448 48.0571 18.8203 47.6353 18.5713 47.313C18.3252 46.9878 17.9971 46.8252 17.5869 46.8252C17.1855 46.8252 16.8618 46.9849 16.6157 47.3042C16.3696 47.6235 16.2466 48.0806 16.2466 48.6753ZM23.981 48.4951V51H23.1372V44.6016H25.4971C26.1973 44.6016 26.7451 44.7803 27.1406 45.1377C27.5391 45.4951 27.7383 45.9683 27.7383 46.5571C27.7383 47.1782 27.5435 47.6572 27.1538 47.9941C26.7671 48.3281 26.2119 48.4951 25.4883 48.4951H23.981ZM23.981 47.8052H25.4971C25.9482 47.8052 26.2939 47.6997 26.5342 47.4888C26.7744 47.2749 26.8945 46.9673 26.8945 46.5659C26.8945 46.1851 26.7744 45.8804 26.5342 45.6519C26.2939 45.4233 25.9644 45.3047 25.5454 45.2959H23.981V47.8052ZM30.9858 46.9746C30.8628 46.9541 30.7295 46.9438 30.5859 46.9438C30.0527 46.9438 29.6909 47.1709 29.5005 47.625V51H28.6875V46.2451H29.4785L29.4917 46.7944C29.7583 46.3696 30.1362 46.1572 30.6255 46.1572C30.7837 46.1572 30.9038 46.1777 30.9858 46.2188V46.9746ZM33.6226 51.0879C32.978 51.0879 32.4536 50.877 32.0493 50.4551C31.645 50.0303 31.4429 49.4634 31.4429 48.7544V48.605C31.4429 48.1333 31.5322 47.7129 31.7109 47.3438C31.8926 46.9717 32.1445 46.6816 32.4668 46.4736C32.792 46.2627 33.1436 46.1572 33.5215 46.1572C34.1396 46.1572 34.6201 46.3608 34.9629 46.7681C35.3057 47.1753 35.4771 47.7583 35.4771 48.5171V48.8555H32.2559C32.2676 49.3242 32.4038 49.7036 32.6646 49.9937C32.9282 50.2808 33.2622 50.4243 33.6665 50.4243C33.9536 50.4243 34.1968 50.3657 34.396 50.2485C34.5952 50.1313 34.7695 49.9761 34.9189 49.7827L35.4155 50.1694C35.0171 50.7817 34.4194 51.0879 33.6226 51.0879ZM33.5215 46.8252C33.1934 46.8252 32.918 46.9453 32.6953 47.1855C32.4727 47.4229 32.335 47.7568 32.2822 48.1875H34.6641V48.126C34.6406 47.7129 34.5293 47.3936 34.3301 47.168C34.1309 46.9395 33.8613 46.8252 33.5215 46.8252ZM36.4395 50.5737C36.4395 50.4331 36.4805 50.3159 36.5625 50.2222C36.6475 50.1284 36.7734 50.0815 36.9404 50.0815C37.1074 50.0815 37.2334 50.1284 37.3184 50.2222C37.4062 50.3159 37.4502 50.4331 37.4502 50.5737C37.4502 50.7085 37.4062 50.8213 37.3184 50.9121C37.2334 51.0029 37.1074 51.0483 36.9404 51.0483C36.7734 51.0483 36.6475 51.0029 36.5625 50.9121C36.4805 50.8213 36.4395 50.7085 36.4395 50.5737ZM38.8125 50.5737C38.8125 50.4331 38.8535 50.3159 38.9355 50.2222C39.0205 50.1284 39.1465 50.0815 39.3135 50.0815C39.4805 50.0815 39.6064 50.1284 39.6914 50.2222C39.7793 50.3159 39.8232 50.4331 39.8232 50.5737C39.8232 50.7085 39.7793 50.8213 39.6914 50.9121C39.6064 51.0029 39.4805 51.0483 39.3135 51.0483C39.1465 51.0483 39.0205 51.0029 38.9355 50.9121C38.8535 50.8213 38.8125 50.7085 38.8125 50.5737ZM41.1855 50.5737C41.1855 50.4331 41.2266 50.3159 41.3086 50.2222C41.3936 50.1284 41.5195 50.0815 41.6865 50.0815C41.8535 50.0815 41.9795 50.1284 42.0645 50.2222C42.1523 50.3159 42.1963 50.4331 42.1963 50.5737C42.1963 50.7085 42.1523 50.8213 42.0645 50.9121C41.9795 51.0029 41.8535 51.0483 41.6865 51.0483C41.5195 51.0483 41.3936 51.0029 41.3086 50.9121C41.2266 50.8213 41.1855 50.7085 41.1855 50.5737Z" fill="black"/>
</svg>
