<svg width="39" height="52" viewBox="0 0 39 52" fill="none" xmlns="http://www.w3.org/2000/svg">
<path d="M17.2109 20.0078C16.8203 18.7578 16.8281 16.3438 17.0547 16.3438C17.7109 16.3438 17.6484 19.2266 17.2109 20.0078ZM17.0781 23.6953C16.4766 25.2734 15.7266 27.0781 14.8594 28.5938C16.2891 28.0469 17.9062 27.25 19.7734 26.8828C18.7812 26.1328 17.8281 25.0547 17.0781 23.6953ZM9.72656 33.4453C9.72656 33.5078 10.7578 33.0234 12.4531 30.3047C11.9297 30.7969 10.1797 32.2188 9.72656 33.4453ZM22.375 12.5H33V38.125C33 39.1641 32.1641 40 31.125 40H4.875C3.83594 40 3 39.1641 3 38.125V1.875C3 0.835938 3.83594 0 4.875 0H20.5V10.625C20.5 11.6562 21.3438 12.5 22.375 12.5ZM21.75 25.9219C20.1875 24.9688 19.1484 23.6562 18.4141 21.7188C18.7656 20.2734 19.3203 18.0781 18.8984 16.7031C18.5312 14.4062 15.5859 14.6328 15.1641 16.1719C14.7734 17.6016 15.1328 19.6172 15.7969 22.1875C14.8906 24.3438 13.5547 27.2344 12.6094 28.8906C12.6016 28.8906 12.6016 28.8984 12.5938 28.8984C10.4766 29.9844 6.84375 32.375 8.33594 34.2109C8.77344 34.75 9.58594 34.9922 10.0156 34.9922C11.4141 34.9922 12.8047 33.5859 14.7891 30.1641C16.8047 29.5 19.0156 28.6719 20.9609 28.3516C22.6562 29.2734 24.6406 29.875 25.9609 29.875C28.2422 29.875 28.3984 27.375 27.5 26.4844C26.4141 25.4219 23.2578 25.7266 21.75 25.9219ZM32.4531 8.20312L24.7969 0.546875C24.4453 0.195312 23.9688 0 23.4688 0H23V10H33V9.52344C33 9.03125 32.8047 8.55469 32.4531 8.20312ZM26.6641 28.1484C26.9844 27.9375 26.4688 27.2187 23.3203 27.4453C26.2188 28.6797 26.6641 28.1484 26.6641 28.1484Z" fill="#E60000"/>
<path d="M3.08936 48.4116H1.58643V51H0.738281V44.6016H2.85645C3.57715 44.6016 4.13086 44.7656 4.51758 45.0938C4.90723 45.4219 5.10205 45.8994 5.10205 46.5264C5.10205 46.9248 4.99365 47.272 4.77686 47.5679C4.56299 47.8638 4.26416 48.085 3.88037 48.2314L5.3833 50.9473V51H4.47803L3.08936 48.4116ZM1.58643 47.7217H2.88281C3.30176 47.7217 3.63428 47.6133 3.88037 47.3965C4.12939 47.1797 4.25391 46.8896 4.25391 46.5264C4.25391 46.1309 4.13525 45.8276 3.89795 45.6167C3.66357 45.4058 3.32373 45.2988 2.87842 45.2959H1.58643V47.7217ZM10.793 44.6016V48.9521C10.79 49.5557 10.5996 50.0493 10.2217 50.4331C9.84668 50.8169 9.33691 51.0322 8.69238 51.0791L8.46826 51.0879C7.76807 51.0879 7.20996 50.8989 6.79395 50.521C6.37793 50.1431 6.16699 49.623 6.16113 48.9609V44.6016H6.99609V48.9346C6.99609 49.3975 7.12354 49.7578 7.37842 50.0156C7.6333 50.2705 7.99658 50.3979 8.46826 50.3979C8.9458 50.3979 9.31055 50.2705 9.5625 50.0156C9.81738 49.7607 9.94482 49.4019 9.94482 48.939V44.6016H10.793ZM16.5454 45.2959H14.4888V51H13.6494V45.2959H11.5972V44.6016H16.5454V45.2959ZM20.395 48.4951V51H19.5513V44.6016H21.9111C22.6113 44.6016 23.1592 44.7803 23.5547 45.1377C23.9531 45.4951 24.1523 45.9683 24.1523 46.5571C24.1523 47.1782 23.9575 47.6572 23.5679 47.9941C23.1812 48.3281 22.626 48.4951 21.9023 48.4951H20.395ZM20.395 47.8052H21.9111C22.3623 47.8052 22.708 47.6997 22.9482 47.4888C23.1885 47.2749 23.3086 46.9673 23.3086 46.5659C23.3086 46.1851 23.1885 45.8804 22.9482 45.6519C22.708 45.4233 22.3784 45.3047 21.9595 45.2959H20.395V47.8052ZM27.3999 46.9746C27.2769 46.9541 27.1436 46.9438 27 46.9438C26.4668 46.9438 26.105 47.1709 25.9146 47.625V51H25.1016V46.2451H25.8926L25.9058 46.7944C26.1724 46.3696 26.5503 46.1572 27.0396 46.1572C27.1978 46.1572 27.3179 46.1777 27.3999 46.2188V46.9746ZM30.0366 51.0879C29.3921 51.0879 28.8677 50.877 28.4634 50.4551C28.0591 50.0303 27.8569 49.4634 27.8569 48.7544V48.605C27.8569 48.1333 27.9463 47.7129 28.125 47.3438C28.3066 46.9717 28.5586 46.6816 28.8809 46.4736C29.2061 46.2627 29.5576 46.1572 29.9355 46.1572C30.5537 46.1572 31.0342 46.3608 31.377 46.7681C31.7197 47.1753 31.8911 47.7583 31.8911 48.5171V48.8555H28.6699C28.6816 49.3242 28.8179 49.7036 29.0786 49.9937C29.3423 50.2808 29.6763 50.4243 30.0806 50.4243C30.3677 50.4243 30.6108 50.3657 30.8101 50.2485C31.0093 50.1313 31.1836 49.9761 31.333 49.7827L31.8296 50.1694C31.4312 50.7817 30.8335 51.0879 30.0366 51.0879ZM29.9355 46.8252C29.6074 46.8252 29.332 46.9453 29.1094 47.1855C28.8867 47.4229 28.749 47.7568 28.6963 48.1875H31.0781V48.126C31.0547 47.7129 30.9434 47.3936 30.7441 47.168C30.5449 46.9395 30.2754 46.8252 29.9355 46.8252ZM32.8535 50.5737C32.8535 50.4331 32.8945 50.3159 32.9766 50.2222C33.0615 50.1284 33.1875 50.0815 33.3545 50.0815C33.5215 50.0815 33.6475 50.1284 33.7324 50.2222C33.8203 50.3159 33.8643 50.4331 33.8643 50.5737C33.8643 50.7085 33.8203 50.8213 33.7324 50.9121C33.6475 51.0029 33.5215 51.0483 33.3545 51.0483C33.1875 51.0483 33.0615 51.0029 32.9766 50.9121C32.8945 50.8213 32.8535 50.7085 32.8535 50.5737ZM35.2266 50.5737C35.2266 50.4331 35.2676 50.3159 35.3496 50.2222C35.4346 50.1284 35.5605 50.0815 35.7275 50.0815C35.8945 50.0815 36.0205 50.1284 36.1055 50.2222C36.1934 50.3159 36.2373 50.4331 36.2373 50.5737C36.2373 50.7085 36.1934 50.8213 36.1055 50.9121C36.0205 51.0029 35.8945 51.0483 35.7275 51.0483C35.5605 51.0483 35.4346 51.0029 35.3496 50.9121C35.2676 50.8213 35.2266 50.7085 35.2266 50.5737ZM37.5996 50.5737C37.5996 50.4331 37.6406 50.3159 37.7227 50.2222C37.8076 50.1284 37.9336 50.0815 38.1006 50.0815C38.2676 50.0815 38.3936 50.1284 38.4785 50.2222C38.5664 50.3159 38.6104 50.4331 38.6104 50.5737C38.6104 50.7085 38.5664 50.8213 38.4785 50.9121C38.3936 51.0029 38.2676 51.0483 38.1006 51.0483C37.9336 51.0483 37.8076 51.0029 37.7227 50.9121C37.6406 50.8213 37.5996 50.7085 37.5996 50.5737Z" fill="black"/>
</svg>
